HIERARCHY
ROOT SpineBase
{
  OFFSET 0.000000 0.000000 0.000000
  CHANNELS 6 Xposition Yposition Zposition Zrotation Xrotation Yrotation
  JOINT SpineMid
  {
    OFFSET -0.000000 29.941451 0.000000
    CHANNELS 3 Zrotation Xrotation Yrotation
    JOINT SpineShoulder
    {
      OFFSET 0.106004 22.360842 -0.832952
      CHANNELS 3 Zrotation Xrotation Yrotation
      JOINT Neck
      {
        OFFSET 0.016873 7.441417 -0.636758
        CHANNELS 3 Zrotation Xrotation Yrotation
        JOINT Head
        {
          OFFSET -1.832106 12.879823 1.409738
          CHANNELS 3 Zrotation Xrotation Yrotation
          End Site
          {
            OFFSET 0 0 0
          }
        }
      }
      JOINT ShoulderLeft
      {
        OFFSET -13.456274 -7.974969 17.367488
        CHANNELS 3 Zrotation Xrotation Yrotation
        JOINT ElbowLeft
        {
          OFFSET 8.504007 -16.738564 -20.504950
          CHANNELS 3 Zrotation Xrotation Yrotation
          JOINT WristLeft
          {
            OFFSET 2.254459 23.856770 -1.978408
            CHANNELS 3 Zrotation Xrotation Yrotation
            JOINT HandLeft
            {
              OFFSET 0.816459 6.862153 -0.104540
              CHANNELS 3 Zrotation Xrotation Yrotation
              JOINT HandTipLeft
              {
                OFFSET 0.975604 7.987597 -2.375308
                CHANNELS 3 Zrotation Xrotation Yrotation
                End Site
                {
                  OFFSET 0 0 0
                }
              }
              JOINT ThumbLeft
              {
                OFFSET -4.520647 2.372337 -1.771457
                CHANNELS 3 Zrotation Xrotation Yrotation
                End Site
                {
                  OFFSET 0 0 0
                }
              }
            }
          }
        }
      }
      JOINT ShoulderRight
      {
        OFFSET 7.086948 -3.171984 -4.354700
        CHANNELS 3 Zrotation Xrotation Yrotation
        JOINT ElbowRight
        {
          OFFSET -16.762961 -28.011226 -6.830605
          CHANNELS 3 Zrotation Xrotation Yrotation
          JOINT WristRight
          {
            OFFSET -13.547614 -20.177449 -1.596454
            CHANNELS 3 Zrotation Xrotation Yrotation
            JOINT HandRight
            {
              OFFSET -3.958444 -6.205551 -0.381279
              CHANNELS 3 Zrotation Xrotation Yrotation
              JOINT HandTipRight
              {
                OFFSET -1.202814 -5.766310 -0.921923
                CHANNELS 3 Zrotation Xrotation Yrotation
                End Site
                {
                  OFFSET 0 0 0
                }
              }
              JOINT ThumbRight
              {
                OFFSET -0.787566 0.722403 -2.311232
                CHANNELS 3 Zrotation Xrotation Yrotation
                End Site
                {
                  OFFSET 0 0 0
                }
              }
            }
          }
        }
      }
    }
  }
  JOINT HipLeft
  {
    OFFSET -4.699886 1.966416 -4.351798
    CHANNELS 3 Zrotation Xrotation Yrotation
    JOINT KneeLeft
    {
      OFFSET -8.316998 -26.474005 -5.691921
      CHANNELS 3 Zrotation Xrotation Yrotation
      JOINT AnkleLeft
      {
        OFFSET -6.159624 -21.298292 4.644363
        CHANNELS 3 Zrotation Xrotation Yrotation
        JOINT FootLeft
        {
          OFFSET 7.133502 1.130978 -11.088453
          CHANNELS 3 Zrotation Xrotation Yrotation
          End Site
          {
            OFFSET 0 0 0
          }
        }
      }
    }
  }
  JOINT HipRight
  {
    OFFSET 4.256149 0.634697 -2.277739
    CHANNELS 3 Zrotation Xrotation Yrotation
    JOINT KneeRight
    {
      OFFSET -2.738345 -23.877598 -3.615260
      CHANNELS 3 Zrotation Xrotation Yrotation
      JOINT AnkleRight
      {
        OFFSET 6.626560 -24.228910 5.010676
        CHANNELS 3 Zrotation Xrotation Yrotation
        JOINT FootRight
        {
          OFFSET -9.442686 -0.146805 -11.185401
          CHANNELS 3 Zrotation Xrotation Yrotation
          End Site
          {
            OFFSET 0 0 0
          }
        }
      }
    }
  }
}
MOTION
Frames: 5
Frame Time: 0.033333
23.722860 58.693634 316.683282 -5.315241 -1.470954 -29.965388 0.477500 -0.021959 29.705372 0.428081 0.231115 -0.202658 3.581240 0.022644 0.216981 0.000000 0.000000 0.000000 4.473122 1.528798 0.320172 -0.000000 0.000000 0.000000 -0.802390 -11.758120 1.305870 -7.001718 12.756155 -2.238795 0.000000 0.000000 0.000000 0.000000 0.000000 0.000000 41.758452 -13.220265 4.938780 -11.935460 24.947677 -14.273145 -7.352450 -24.046189 20.176475 -0.585869 2.402085 -7.812075 0.000000 0.000000 0.000000 0.000000 0.000000 0.000000 -0.388779 -11.188023 35.329426 52.152405 26.009640 -19.267957 -48.226557 -31.892203 -21.489351 0.000000 0.000000 0.000000 -6.845910 17.488751 30.177645 -8.742441 3.614368 4.342594 20.574382 -32.891228 -0.716121 0.000000 0.000000 0.000000
23.623759 58.088701 315.710507 -5.205568 -2.313334 -40.122232 0.666032 0.089154 39.828801 0.426737 0.179919 -0.197417 2.246961 1.294579 0.367122 0.000000 0.000000 0.000000 4.194759 2.522185 0.261514 -0.000000 0.000000 0.000000 -1.771924 -16.463661 1.682153 -2.459129 16.611515 -2.286832 0.000000 0.000000 0.000000 0.000000 0.000000 0.000000 42.794922 -14.827907 7.037378 -5.634220 26.281015 -18.986819 -19.470591 -25.360925 18.101114 10.830948 1.769481 -10.652923 0.000000 0.000000 0.000000 0.000000 0.000000 0.000000 2.810088 -15.056500 47.614284 63.233681 24.132263 -23.455858 -64.032204 -31.905412 -32.210443 0.000000 0.000000 0.000000 -18.480747 15.957897 42.581274 0.273278 -0.906057 5.557234 14.571343 -30.153556 0.681083 0.000000 0.000000 0.000000
23.243973 57.293883 314.840490 -5.488317 -3.553685 -44.940201 0.927474 0.256711 44.565425 0.418315 0.320491 -0.201401 1.601053 2.440744 0.458844 0.000000 0.000000 0.000000 4.204612 3.734309 0.214965 -0.000000 0.000000 0.000000 -1.627930 -21.416802 2.235088 -2.738853 24.544777 -2.824582 0.000000 0.000000 0.000000 0.000000 0.000000 0.000000 44.584921 -16.533650 9.413634 -4.347609 27.619664 -20.923120 -31.043207 -19.858044 11.151503 21.862259 -6.264412 -6.566617 0.000000 0.000000 0.000000 0.000000 0.000000 0.000000 7.303104 -13.378413 52.993646 65.334472 22.183304 -23.715992 -63.689503 -25.447148 -28.256868 0.000000 0.000000 0.000000 -26.088242 14.233225 48.790999 6.760169 -3.903987 7.014734 11.030209 -28.990876 1.517728 0.000000 0.000000 0.000000
23.167299 57.103785 313.630273 -5.527726 -4.690594 -46.330932 1.036841 0.349884 45.892598 0.277135 0.352101 -0.208061 1.151828 4.263924 0.673093 0.000000 0.000000 0.000000 4.244497 4.874029 0.172222 -0.000000 0.000000 0.000000 -1.270270 -26.308553 2.855610 -0.985832 30.203603 -3.543820 0.000000 0.000000 0.000000 0.000000 0.000000 0.000000 46.390731 -17.989281 11.564045 -7.708773 29.158690 -19.536752 -29.848857 -10.334657 5.945238 21.190956 -11.169781 0.012775 0.000000 0.000000 0.000000 0.000000 0.000000 0.000000 9.759477 -12.145601 54.641183 72.014961 19.627812 -24.554217 -72.090102 -25.535319 -16.368415 0.000000 0.000000 0.000000 -29.888775 11.964096 50.807799 10.979930 -3.978748 7.783486 9.997048 -29.287715 0.741219 0.000000 0.000000 0.000000
22.699292 56.828690 312.195738 -5.910993 -5.594219 -46.626538 1.001383 0.582049 46.111565 0.194078 0.393540 -0.223063 1.002425 5.515329 0.886373 0.000000 0.000000 0.000000 4.559916 5.559263 0.156937 -0.000000 0.000000 0.000000 -0.559564 -31.124428 3.614020 2.419157 36.371718 -5.213240 0.000000 0.000000 0.000000 0.000000 0.000000 0.000000 48.358888 -19.418286 13.712571 -6.823550 29.782573 -20.484394 -32.538864 -8.929029 5.522861 21.986676 -10.774259 -0.606057 0.000000 0.000000 0.000000 0.000000 0.000000 0.000000 12.703433 -9.621059 54.411660 75.729555 18.541194 -25.492835 -72.034591 -28.280995 17.065670 0.000000 0.000000 0.000000 -30.332511 11.032954 51.364938 12.390673 -2.618442 7.902597 10.671717 -30.899585 -0.616303 0.000000 0.000000 0.000000
